<?xml version="1.0" standalone="no"?>
<!DOCTYPE svg PUBLIC "-//W3C//DTD SVG 20010904//EN"
 "http://www.w3.org/TR/2001/REC-SVG-20010904/DTD/svg10.dtd">
<svg version="1.0" xmlns="http://www.w3.org/2000/svg"
 width="16.000000pt" height="16.000000pt" viewBox="0 0 16.000000 16.000000"
 preserveAspectRatio="xMidYMid meet">

<g transform="translate(0.000000,16.000000) scale(0.100000,-0.100000)"
fill="#000000" stroke="none">
<path d="M27 134 c-4 -4 -7 -32 -7 -61 l0 -54 58 3 57 3 0 55 0 55 -50 3 c-28
2 -54 0 -58 -4z m32 -35 c19 -30 19 -31 30 -10 7 12 8 21 4 21 -4 0 0 5 10 11
10 6 21 9 23 6 7 -6 -38 -77 -49 -77 -8 0 -47 60 -47 73 0 15 11 6 29 -24z"/>
</g>
</svg>
